<svg xmlns="http://www.w3.org/2000/svg" viewBox="0 0 110 33.7" width="110" height="34"><style>.a{fill:#010102;}</style><path class="a" d="M 17.2 13.3 v 6.6 c 0 0.3 -0.1 0.5 -0.3 0.7 c -0.8 0.7 -3.1 2.1 -7.1 2.1 c -5.7 0 -9.8 -4.1 -9.8 -9.3 c 0 -5.2 4.1 -9.5 10 -9.5 c 3.1 0 5.1 0.8 6.2 1.5 c 0.3 0.2 0.4 0.5 0.2 0.9 l -1.5 2.8 c -0.2 0.4 -0.5 0.5 -0.9 0.3 c -0.9 -0.5 -2 -0.9 -3.8 -0.9 c -3 0 -5.1 1.9 -5.1 4.9 c 0 2.9 2.2 4.9 4.9 4.9 c 0.9 0 1.7 -0.1 2.5 -0.4 v -4.5 c 0 -0.4 0.2 -0.7 0.7 -0.7 h 3.3 C 16.9 12.6 17.2 12.9 17.2 13.3 Z" /><path class="a" d="M 37 22.6 h -3.9 c -0.4 0 -0.6 -0.2 -0.8 -0.5 l -1.1 -2.6 h -6.8 l -1.1 2.6 c -0.1 0.3 -0.4 0.5 -0.8 0.5 h -3.8 c -0.5 0 -0.7 -0.3 -0.5 -0.8 L 26.2 4.4 c 0.2 -0.3 0.4 -0.5 0.8 -0.5 h 1.9 c 0.4 0 0.6 0.2 0.8 0.5 l 7.8 17.5 C 37.7 22.3 37.5 22.6 37 22.6 Z M 25.7 15.6 h 4.3 l -2.1 -5.1 L 25.7 15.6 Z" /><path class="a" d="M 53 4.5 v 3.2 c 0 0.4 -0.2 0.7 -0.7 0.7 h -5.4 v 13.6 c 0 0.4 -0.2 0.7 -0.7 0.7 h -3.8 c -0.4 0 -0.7 -0.2 -0.7 -0.7 V 8.3 h -5.3 c -0.4 0 -0.7 -0.2 -0.7 -0.7 V 4.5 c 0 -0.4 0.2 -0.7 0.7 -0.7 h 15.9 C 52.7 3.9 53 4.1 53 4.5 Z" /><path class="a" d="M 68.8 18.9 v 3.1 c 0 0.4 -0.2 0.7 -0.7 0.7 H 55.8 c -0.4 0 -0.7 -0.2 -0.7 -0.7 V 4.5 c 0 -0.4 0.2 -0.7 0.7 -0.7 h 12.2 c 0.4 0 0.7 0.2 0.7 0.7 v 3.1 c 0 0.4 -0.2 0.7 -0.7 0.7 h -7.9 v 2.7 h 6.8 c 0.4 0 0.7 0.2 0.7 0.7 v 3 c 0 0.4 -0.2 0.7 -0.7 0.7 h -6.8 v 2.9 h 7.9 C 68.5 18.2 68.8 18.5 68.8 18.9 Z" /><path class="a" d="M 87.9 13.3 v 6.6 c 0 0.3 -0.1 0.5 -0.3 0.7 c -0.8 0.7 -3.1 2.1 -7.1 2.1 c -5.7 0 -9.8 -4.1 -9.8 -9.3 c 0 -5.2 4.1 -9.5 10 -9.5 c 3.1 0 5.1 0.8 6.2 1.5 c 0.3 0.2 0.4 0.5 0.2 0.9 l -1.5 2.8 c -0.2 0.4 -0.5 0.5 -0.9 0.3 c -0.9 -0.5 -2 -0.9 -3.8 -0.9 c -3 0 -5.1 1.9 -5.1 4.9 c 0 2.9 2.2 4.9 4.9 4.9 c 0.9 0 1.7 -0.1 2.5 -0.4 v -4.5 c 0 -0.4 0.2 -0.7 0.7 -0.7 h 3.3 C 87.7 12.6 87.9 12.9 87.9 13.3 Z" /><path class="a" d="M 90.6 13.2 c 0 -5.3 4.1 -9.4 9.7 -9.4 c 5.5 0 9.6 3.9 9.6 9.4 c 0 5.4 -4.1 9.4 -9.6 9.4 C 94.8 22.6 90.6 18.5 90.6 13.2 Z M 105 13.2 c 0 -2.9 -2 -4.9 -4.6 -4.9 c -2.7 0 -4.7 2.1 -4.7 4.9 c 0 2.8 2 5 4.7 5 C 103 18.2 105 16.1 105 13.2 Z" /><rect class="a" transform="matrix(0.9206 0.3905 -0.3905 0.9206 13.0752 -38.1338)" x="100" y="-1" width="0.7" height="28.2" /></svg>